PathFileType	4	(X/Y/Z)	/Users/niels/Desktop/University/Third Semester/Perception and Action/Exam/Gymnastics Motion Tracking/Code for Gym Tracking/Analyzed Data/Webcam_Backflip/id1_4_trajectory_Sports2D/id1_4_trajectory_Sports2D_px_person00.trc
DataRate	CameraRate	NumFrames	NumMarkers	Units	OrigDataRate	OrigDataStartFrame	OrigNumFrames
29.874476987447697	29.874476987447697	9	22	m	29.874476987447697	209	239
Frame#	Time	Hip			RHip			RKnee			RAnkle			RBigToe			RSmallToe			RHeel			LHip			LKnee			LAnkle			LBigToe			LSmallToe			LHeel			Neck			Head			Nose			RShoulder			RElbow			RWrist			LShoulder			LElbow			LWrist		
		X1	Y1	Z1	X2	Y2	Z2	X3	Y3	Z3	X4	Y4	Z4	X5	Y5	Z5	X6	Y6	Z6	X7	Y7	Z7	X8	Y8	Z8	X9	Y9	Z9	X10	Y10	Z10	X11	Y11	Z11	X12	Y12	Z12	X13	Y13	Z13	X14	Y14	Z14	X15	Y15	Z15	X16	Y16	Z16	X17	Y17	Z17	X18	Y18	Z18	X19	Y19	Z19	X20	Y20	Z20	X21	Y21	Z21	X22	Y22	Z22
209	6.99593837535014	0.8483161971623477	-0.5956224950391961	0.0	0.8385033012654041	-0.5923651531745581	0.0	0.8319882769411938	-0.6975136516700239	0.0	0.8130761376997372	-0.8100148573903656	0.0	0.8586965960190741	-0.8328752991585955	0.0	0.847138865645397	-0.8363261250610798	0.0	0.7998274423357616	-0.8274203242217253	0.0	0.859257272280253	-0.5937418060912166	0.0	0.8476612085573367	-0.6985355062771359	0.0	0.8314137392883213	-0.8062422423157474	0.0	0.8724917264539339	-0.8302924580292182	0.0	0.8693535667412212	-0.8264305303661339	0.0	0.8211250016474797	-0.8221054350975776	0.0	0.8616410045863315	-0.4257175045290194	0.0	0.8926725155938618	-0.356598298402507	0.0	0.8995943981312836	-0.3997407384954524	0.0	0.8320820776809338	-0.4462316347640602	0.0	0.8058731094785926	-0.5182623748463375	0.0	0.8264906334946032	-0.5922202138404119	0.0	0.8669894047973578	-0.44985364067015293	0.0	0.8457286748193381	-0.5192397063246244	0.0	0.8598941553652635	-0.591878284362011	0.0
210	7.029411764705882	0.8485196585566407	-0.5932049196600679	0.0	0.8385375702595951	-0.5900951956737581	0.0	0.8322919318172393	-0.6953746737931116	0.0	0.8125998857665209	-0.8079394995821564	0.0	0.8592650317887984	-0.8307863944861512	0.0	0.847001950817129	-0.8337545132816565	0.0	0.799385533470383	-0.8252636756819041	0.0	0.8596177292207761	-0.5914357187550582	0.0	0.8479872567630364	-0.6963988076160842	0.0	0.8315582753194284	-0.8039696208813738	0.0	0.8725476906933571	-0.8281237321840208	0.0	0.8695428543682652	-0.8240764179925137	0.0	0.8218080633478555	-0.8197280149126568	0.0	0.861686522922891	-0.4229403850207884	0.0	0.8920597032683918	-0.3540785561768081	0.0	0.899354632444416	-0.39727564640597374	0.0	0.8319765887770455	-0.4436187097443229	0.0	0.8058213852677731	-0.5156398922167262	0.0	0.8280120373764929	-0.5890758292447372	0.0	0.8672708810048173	-0.4474419536084125	0.0	0.8473620612638674	-0.5172004263954176	0.0	0.8619885200670433	-0.5894203608201076	0.0
211	7.062885154061624	0.8488841649394739	-0.5912450764638458	0.0	0.8386310799441665	-0.5882165528284297	0.0	0.8325260491445223	-0.6939083868640608	0.0	0.8121189577019147	-0.8066885237789804	0.0	0.8596224683593608	-0.8295737286607532	0.0	0.8468271068394977	-0.8321299944666835	0.0	0.7990109067890352	-0.8240480561090927	0.0	0.860182529738529	-0.5895150147575611	0.0	0.8483410944218023	-0.6949846552364436	0.0	0.8317021549039024	-0.8025706307027742	0.0	0.8726842687030097	-0.8267982514011981	0.0	0.8698276101532655	-0.8226576457763485	0.0	0.82254002013915	-0.8183505495920828	0.0	0.861725752978393	-0.4209813356023181	0.0	0.8914759566902932	-0.3523956584259335	0.0	0.8992106093583664	-0.3955388028045947	0.0	0.8318362389929153	-0.44195124920474244	0.0	0.8057580431438679	-0.5140272863458243	0.0	0.8298339715664506	-0.5867492068876042	0.0	0.8676575946744663	-0.4459119458483697	0.0	0.8497782661769803	-0.5163234935160617	0.0	0.8650395733066251	-0.5877251218706324	0.0
212	7.096358543417367	0.84937191330525	-0.5897475586350994	0.0	0.8387817605896644	-0.5867447001355454	0.0	0.8326900958850743	-0.6931711484817467	0.0	0.811771536869996	-0.806335980114124	0.0	0.8596626170369526	-0.829365802093607	0.0	0.846632417016929	-0.8316879395080707	0.0	0.7988597438244334	-0.8238275238027789	0.0	0.8609156176396333	-0.5879794590262408	0.0	0.8487398929535395	-0.6943323105221427	0.0	0.8319058331102905	-0.8021382910839092	0.0	0.8728365246016931	-0.8264018324666622	0.0	0.8701711001951901	-0.8222670187212094	0.0	0.8232727463602513	-0.818015707850685	0.0	0.8617174891038685	-0.42006226482824577	0.0	0.890998507866069	-0.3515643838001382	0.0	0.8990828584888352	-0.3946058936790937	0.0	0.8316539939312575	-0.4413697102424625	0.0	0.8057359604090698	-0.5135892585482191	0.0	0.8318708940753913	-0.5854494968209829	0.0	0.8681769918136635	-0.4453318419371734	0.0	0.8526724457772574	-0.5166023734451923	0.0	0.868667584431384	-0.5867089861745356	0.0
213	7.129831932773109	0.8498986776846039	-0.5887806529254557	0.0	0.8390124167907625	-0.585761577427739	0.0	0.8328121573223753	-0.6931950909141235	0.0	0.8116422677184975	-0.8068948806614602	0.0	0.8593261335642908	-0.8301422307279601	0.0	0.8464233286681124	-0.8324499358518773	0.0	0.7990868987318799	-0.8245732566401804	0.0	0.8617156540158483	-0.5868881646309088	0.0	0.8491893872801575	-0.6944683805342788	0.0	0.8321865286382875	-0.8026685893732964	0.0	0.8729611267815086	-0.8269679065885315	0.0	0.8705485017881854	-0.822898560186716	0.0	0.8239401263929301	-0.8186920149659789	0.0	0.8616470742911305	-0.4203090738792166	0.0	0.8906900407943573	-0.3515705873469162	0.0	0.898905938976857	-0.39452666464242636	0.0	0.8314339094120031	-0.4419066015706886	0.0	0.805838610596375	-0.5144041706044846	0.0	0.8340162160638501	-0.5853132609104654	0.0	0.8687535422633208	-0.445689370835394	0.0	0.8555803952145622	-0.5179098893527909	0.0	0.8724459068000286	-0.586332785184932	0.0
214	7.163305322128851	0.8503997172168503	-0.5884701950774736	0.0	0.8393388317796416	-0.5853947929184936	0.0	0.832909667081991	-0.6939618444698726	0.0	0.8117432530647286	-0.8082923260228367	0.0	0.8585492507526457	-0.8317837874440008	0.0	0.8461403769333726	-0.8342642311235605	0.0	0.7997922070080952	-0.8261427799694274	0.0	0.8624767272744601	-0.5863498144236092	0.0	0.8496760687104923	-0.6953795287432959	0.0	0.8325284164367395	-0.8040444912193918	0.0	0.8730524417803832	-0.8284656273742674	0.0	0.8709207759680451	-0.8244581860917956	0.0	0.8244949840942791	-0.8202612040561247	0.0	0.8615289079107835	-0.4217135160607728	0.0	0.8906150831342247	-0.3523464353983665	0.0	0.8986528858744132	-0.3952707882112219	0.0	0.8311885532902753	-0.44347639051091325	0.0	0.8061419626919036	-0.5164209550196747	0.0	0.8361332656513258	-0.5863382271083142	0.0	0.8692511636394111	-0.4469057032457888	0.0	0.8580742136655148	-0.5200619738221632	0.0	0.876063009216036	-0.5866089717913718	0.0
215	7.196778711484594	0.8508615591611939	-0.5889265621798938	0.0	0.8397279746603252	-0.5857624063575961	0.0	0.8329692448859176	-0.6953823975356146	0.0	0.8120344188860983	-0.8103617015599396	0.0	0.8573214752271271	-0.8340886389897514	0.0	0.8456990194628373	-0.8368533594260877	0.0	0.8009482132430229	-0.8282920214432201	0.0	0.8631251010454319	-0.5864876659200182	0.0	0.8501672773598266	-0.6969715911752152	0.0	0.832920364096492	-0.8060526848974786	0.0	0.8731625585694309	-0.8307516719204003	0.0	0.8712546101760998	-0.8267516184816651	0.0	0.8249393125076595	-0.8225024964151932	0.0	0.8613952073023775	-0.4241196937839809	0.0	0.8907870210713132	-0.3537786153709585	0.0	0.8983444653481742	-0.39671677141129247	0.0	0.830939924160525	-0.4458900424222638	0.0	0.806677392648894	-0.5194181410877223	0.0	0.8380729143585937	-0.5883673744173011	0.0	0.8695765068170086	-0.4488524333267923	0.0	0.8599487227134119	-0.5228774124610944	0.0	0.879392268016407	-0.5875721524653134	0.0
216	7.230252100840336	0.8513042096165936	-0.5901870549955661	0.0	0.8401193231668593	-0.5869423291796645	0.0	0.8329913683303221	-0.6973233066424501	0.0	0.8124324668698224	-0.8128719348072626	0.0	0.8558111123339789	-0.836781971013844	0.0	0.8451001245634835	-0.8398466245749103	0.0	0.802343623152511	-0.8307569597417305	0.0	0.8636248190685567	-0.5874246228484814	0.0	0.8506384375899841	-0.6990738325437099	0.0	0.8333478197269719	-0.8084526456585106	0.0	0.8733779344215964	-0.8335537733421935	0.0	0.8715490998173031	-0.829492858352667	0.0	0.8253035712999519	-0.8251336142102976	0.0	0.8612912686165746	-0.42723847192909514	0.0	0.8910813193818089	-0.3557584570385286	0.0	0.8980305633326814	-0.3986818625548586	0.0	0.8307236543467725	-0.4488838036724393	0.0	0.8074176375460187	-0.5230295358792265	0.0	0.8397031030416746	-0.591112677388578	0.0	0.8697443692700384	-0.45137161542069026	0.0	0.8612538811020504	-0.5261782018871038	0.0	0.8824264804797294	-0.5892307815365984	0.0
217	7.263725490196078	0.8517474889299499	-0.5921654586080612	0.0	0.8404609643563244	-0.5888947307787519	0.0	0.8330077186909756	-0.6996241901494539	0.0	0.8128167737863821	-0.8155604202897154	0.0	0.8543348747407875	-0.8395592768052467	0.0	0.8444353489684295	-0.8428410666855628	0.0	0.8036457087127095	-0.833320650588145	0.0	0.8639889698627522	-0.5891876907406967	0.0	0.8511023686932547	-0.7014610267603306	0.0	0.8337770647034501	-0.8110192164886603	0.0	0.8737450426761522	-0.8365294942883544	0.0	0.8718103266996559	-0.8323507268994241	0.0	0.8256240293891038	-0.8278642213530238	0.0	0.8612533760494794	-0.43068184894052575	0.0	0.891269566309704	-0.3581496878821905	0.0	0.8977564928671421	-0.40093979154337245	0.0	0.8305851947475766	-0.4521457072301206	0.0	0.8082969900733997	-0.5268315837348484	0.0	0.8409357798343158	-0.5942282733942227	0.0	0.8698593395233646	-0.45426706481927975	0.0	0.862189541377124	-0.5297297008585585	0.0	0.8851548792525032	-0.5914872729683806	0.0
